<svg width="289" height="45" viewBox="0 0 289 45" fill="none" xmlns="http://www.w3.org/2000/svg">
<path d="M65.744 30.44C65.744 32.816 65 34.676 63.512 36.02C62.024 37.34 60.104 38 57.752 38H46.592V12.368H57.212C59.828 12.368 61.844 13.04 63.26 14.384C64.676 15.728 65.384 17.528 65.384 19.784C65.384 21.896 64.448 23.588 62.576 24.86C62.96 25.1 63.284 25.328 63.548 25.544C63.812 25.736 64.136 26.06 64.52 26.516C64.904 26.948 65.204 27.5 65.42 28.172C65.636 28.844 65.744 29.6 65.744 30.44ZM58.868 31.7C59.252 31.244 59.444 30.704 59.444 30.08C59.444 29.456 59.252 28.928 58.868 28.496C58.508 28.064 57.932 27.848 57.14 27.848H52.892V32.348H57.14C57.932 32.348 58.508 32.132 58.868 31.7ZM58.544 21.584C58.904 21.176 59.084 20.684 59.084 20.108C59.084 19.532 58.904 19.04 58.544 18.632C58.184 18.224 57.608 18.02 56.816 18.02H52.892V22.196H56.816C57.608 22.196 58.184 21.992 58.544 21.584ZM87.1755 38H70.1115V12.368H76.4115V32.384H87.1755V38ZM111.77 38H105.182L103.994 34.184H96.1097L94.8497 38H88.2617L97.5857 12.368H102.446L111.77 38ZM102.338 28.928L100.178 22.088L97.8737 28.928H102.338ZM132.634 29.864C132.178 32.6 131.074 34.676 129.322 36.092C127.594 37.508 125.47 38.216 122.95 38.216C120.07 38.216 117.694 37.28 115.822 35.408C115.198 34.784 114.694 34.112 114.31 33.392C113.926 32.672 113.662 31.82 113.518 30.836C113.374 29.852 113.278 29.012 113.23 28.316C113.206 27.62 113.194 26.576 113.194 25.184C113.194 23.792 113.206 22.748 113.23 22.052C113.278 21.356 113.374 20.516 113.518 19.532C113.662 18.548 113.926 17.696 114.31 16.976C114.694 16.256 115.198 15.584 115.822 14.96C117.694 13.088 120.07 12.152 122.95 12.152C125.47 12.152 127.594 12.86 129.322 14.276C131.074 15.692 132.178 17.768 132.634 20.504H126.226C125.722 18.68 124.63 17.768 122.95 17.768C121.846 17.768 121.018 18.128 120.466 18.848C120.13 19.28 119.878 19.916 119.71 20.756C119.566 21.572 119.494 23.048 119.494 25.184C119.494 27.32 119.566 28.808 119.71 29.648C119.878 30.464 120.13 31.088 120.466 31.52C121.018 32.24 121.846 32.6 122.95 32.6C124.63 32.6 125.722 31.688 126.226 29.864H132.634ZM157.595 38H150.251L144.347 27.488L142.187 29.972V38H135.959V12.368H142.187V21.44L149.603 12.368H157.307L148.559 22.736L157.595 38ZM185.586 17.984H174.462V22.484H183.966V28.1H174.462V38H168.162V12.368H185.586V17.984ZM209.876 38H202.568L198.032 28.46H195.908V38H189.608V12.368H199.76C202.472 12.368 204.608 13.184 206.168 14.816C207.728 16.424 208.508 18.356 208.508 20.612C208.508 22.22 208.1 23.6 207.284 24.752C206.468 25.88 205.484 26.732 204.332 27.308L209.876 38ZM201.452 22.448C201.956 21.92 202.208 21.308 202.208 20.612C202.208 19.916 201.956 19.316 201.452 18.812C200.948 18.284 200.288 18.02 199.472 18.02H195.908V23.204H199.472C200.288 23.204 200.948 22.952 201.452 22.448ZM219.392 38H213.092V12.368H219.392V38ZM243.452 19.748C243.596 20.828 243.668 22.64 243.668 25.184C243.668 27.728 243.596 29.552 243.452 30.656C243.332 31.736 242.984 32.744 242.408 33.68C240.632 36.56 237.86 38 234.092 38H224.588V12.368H234.092C237.86 12.368 240.632 13.808 242.408 16.688C242.984 17.624 243.332 18.644 243.452 19.748ZM237.224 29.324C237.32 28.628 237.368 27.248 237.368 25.184C237.368 23.12 237.32 21.74 237.224 21.044C237.128 20.348 236.948 19.808 236.684 19.424C236.036 18.464 235.028 17.984 233.66 17.984H230.888V32.384H233.66C235.028 32.384 236.036 31.904 236.684 30.944C236.948 30.56 237.128 30.02 237.224 29.324ZM268.602 38H262.014L260.826 34.184H252.942L251.682 38H245.094L254.418 12.368H259.278L268.602 38ZM259.17 28.928L257.01 22.088L254.706 28.928H259.17ZM288.6 12.368L280.86 27.56V38H274.56V27.56L266.82 12.368H273.696L277.728 21.584L281.724 12.368H288.6Z" fill="white"/>
<rect x="8.5" y="14" width="3" height="20" fill="white"/>
<rect x="20" y="22.5" width="3" height="20" transform="rotate(90 20 22.5)" fill="white"/>
</svg>
