<svg width="84" height="43" viewBox="0 0 84 43" fill="none" xmlns="http://www.w3.org/2000/svg">
<path d="M83.5714 19.1807H0V23.2907H83.5714V19.1807Z" fill="#D4161E"/>
<path d="M9.6751 15.6696H5.99316V0.256836H17.2958V3.33939H9.76073V15.6696H9.6751Z" fill="white"/>
<path d="M32.4528 11.4739C32.4528 13.0152 32.1103 14.1284 31.4253 14.8134C30.7403 15.4984 29.7128 15.8409 28.2571 15.8409H23.1195C21.6639 15.8409 20.6364 15.4984 19.9513 14.8134C19.2663 14.1284 18.9238 13.0152 18.9238 11.4739V4.36695C18.9238 2.82567 19.2663 1.71253 19.9513 1.02751C20.6364 0.342503 21.6639 0 23.1195 0H28.3427C29.7984 0 30.8259 0.342503 31.5109 1.02751C32.1959 1.71253 32.5384 2.82567 32.5384 4.36695V11.4739H32.4528ZM28.7709 4.45257C28.7709 3.59631 28.3427 3.16817 27.4865 3.16817H23.9758C23.1195 3.16817 22.6914 3.59631 22.6914 4.45257V11.5596C22.6914 12.4158 23.1195 12.844 23.9758 12.844H27.4865C28.3427 12.844 28.7709 12.4158 28.7709 11.5596V4.45257Z" fill="white"/>
<path d="M47.4374 15.6696H43.6698V9.33323H38.5322V15.6696H34.7646V0.256836H38.5322V6.33631H43.6698V0.256836H47.4374V15.6696Z" fill="white"/>
<path d="M58.6545 7.87763L62.6789 15.7553H58.7401L55.4863 9.41891H53.6025V15.7553H49.835V0.256879H53.6025V6.33635H55.4863L57.5413 2.14066C57.8838 1.54128 58.2263 1.02751 58.6545 0.599382C59.0826 0.17125 59.682 0 60.4526 0C60.7095 0 60.8808 0 61.1376 0C61.3945 0 61.5658 0.0856251 61.737 0.0856251C61.9083 0.171252 62.1652 0.17125 62.3364 0.17125V3.16817H61.4802C61.3089 3.16817 61.052 3.2538 60.8808 3.33943C60.7095 3.51068 60.6239 3.59631 60.5383 3.76756L58.6545 7.87763Z" fill="white"/>
<path d="M67.9014 15.6696H63.877L69.357 0.256836H73.4671L78.9472 15.7552H74.9228L73.9809 13.0152H68.7577L67.9014 15.6696ZM69.7852 10.1039H73.1246L71.4977 4.88066L69.7852 10.1039Z" fill="white"/>
<path d="M3.93846 42.4705H0.170898V26.9722H11.4736V30.0547H3.93846V42.4705Z" fill="white"/>
<path d="M24.9173 42.4705H13.4434V26.9722H25.0029V30.0547H17.1253V33.0516H23.2904V36.1342H17.1253V39.3024H24.9173V42.4705Z" fill="white"/>
<path d="M26.9736 26.9722H35.7075C37.1632 26.9722 38.1907 27.3147 38.8757 27.9997C39.5607 28.6847 39.9032 29.7978 39.9032 31.3391V33.5654C39.9032 35.1067 39.5607 36.2198 38.8757 36.9048C38.1907 37.5898 37.1632 37.9323 35.7075 37.9323H30.7412V42.4705H26.9736V26.9722ZM36.1357 31.4247C36.1357 30.5685 35.7075 30.1403 34.8513 30.1403H30.7412V35.0211H34.8513C35.7075 35.0211 36.1357 34.5929 36.1357 33.7367V31.4247Z" fill="white"/>
<path d="M55.2289 38.2752C55.2289 39.8165 54.8864 40.9296 54.2013 41.6146C53.5163 42.2997 52.4888 42.6422 51.0332 42.6422H45.81C44.3543 42.6422 43.3268 42.2997 42.6418 41.6146C41.9568 40.9296 41.6143 39.8165 41.6143 38.2752V31.1682C41.6143 29.6269 41.9568 28.5138 42.6418 27.8288C43.3268 27.1438 44.3543 26.8013 45.81 26.8013H51.0332C52.4888 26.8013 53.5163 27.1438 54.2013 27.8288C54.8864 28.5138 55.2289 29.6269 55.2289 31.1682V38.2752ZM51.5469 31.1682C51.5469 30.312 51.1188 29.8838 50.2625 29.8838H46.7518C45.8956 29.8838 45.4674 30.312 45.4674 31.1682V38.2752C45.4674 39.1315 45.8956 39.5596 46.7518 39.5596H50.2625C51.1188 39.5596 51.5469 39.1315 51.5469 38.2752V31.1682Z" fill="white"/>
<path d="M69.0159 42.4705H57.542V26.9722H69.1016V30.0547H61.3096V33.0516H67.4747V36.1342H61.3096V39.3024H69.1016V42.4705H69.0159Z" fill="white"/>
<path d="M71.0703 26.9722H79.3761C80.7461 26.9722 81.688 27.3147 82.373 27.9141C82.9724 28.5991 83.3149 29.541 83.3149 30.911C83.3149 31.7672 83.1436 32.5379 82.8011 33.0516C82.4586 33.5654 82.0305 33.9935 81.4311 34.2504C81.7736 34.336 82.0305 34.5073 82.373 34.6785C82.7155 34.8498 82.9724 35.1067 83.1436 35.4492C83.4005 35.7917 83.5718 36.1342 83.743 36.6479C83.9143 37.0761 83.9999 37.6755 83.9999 38.2749C83.9999 39.7305 83.6574 40.758 83.058 41.443C82.373 42.128 81.3455 42.4705 79.9755 42.4705H71.0703V26.9722ZM79.5473 31.4247C79.5473 30.5685 79.1192 30.1403 78.2629 30.1403H74.7523V33.2229H78.2629C79.1192 33.2229 79.5473 32.7948 79.5473 31.9385V31.4247ZM80.2323 37.5898C80.2323 36.7336 79.8042 36.3054 78.9479 36.3054H74.8379V39.388H78.9479C79.8042 39.388 80.2323 38.9599 80.2323 38.1036V37.5898Z" fill="white"/>
</svg>
