<svg width="166" height="123" fill="none" xmlns="http://www.w3.org/2000/svg"><g filter="url(#filter0_d)"><path d="M152 85.427H14.665v18.896H152V85.428zM66.28 16.76H152V10.31H68.304L66.28 16.76zM14.668 16.763h24.23l2.039-6.452h-26.27v6.452z" fill="#FF0"/><path d="M57.985 98.582c0 1.106-.544 1.592-1.45 1.592H55.22v-5.53h1.269c.907 0 1.496.398 1.496 1.371 0 .664-.272 1.062-.861 1.24.589.132.86.619.86 1.327zM55.9 96.945h.544c.544 0 .86-.266.86-.93 0-.619-.316-.796-.86-.796H55.9v1.726zm1.405 1.637c0-.708-.317-1.018-.861-1.018H55.9v1.99h.544c.544 0 .86-.22.86-.972zM60.418 97.56v2.615h-.717V97.56l-1.254-3.376h.717l.896 2.425.94-2.425h.673l-1.255 3.376zM69.044 91.695h-1.688v8.479h-2.111v-8.48h-1.731v-2.12h5.53v2.12zM69.506 94.743c0-4.16 1.36-5.168 3.248-5.168 1.843 0 3.204 1.007 3.204 5.168 0 4.117-1.448 5.431-3.204 5.431-1.8 0-3.248-1.314-3.248-5.43zm4.257.044c0-2.628-.35-3.154-1.01-3.154-.657 0-1.009.526-1.009 3.154 0 2.584.352 3.416 1.01 3.416s1.01-.832 1.01-3.416zM76.88 96.834v-7.26h2.367v7.438c0 .713.325 1.025.928 1.025.557 0 .929-.312.929-1.025v-7.437h2.228v7.304c0 2.137-1.021 3.295-3.157 3.295-2.135 0-3.295-1.158-3.295-3.34zM88.626 94.666l1.443 5.047h-2.23l-1.487-5.608v5.608h-2.1V89.575h2.975c1.793 0 3.017.82 3.017 2.675-.044 1.25-.612 2.157-1.618 2.416zm-.481-2.287c0-.733-.437-.992-1.093-.992h-.744v2.028h.744c.656 0 1.093-.26 1.093-1.036zM93.47 89.575h1.867c2.562 0 4.125 1.127 4.125 4.78v.497c0 4.105-1.563 5.322-4.038 5.322h-1.91v-10.6h-.043zm2.345 8.57c.781 0 1.476-.496 1.476-3.473v-.316c0-2.346-.651-2.797-1.563-2.797h-.173v6.586h.26zM102.733 91.695v2.075h2.535v2.12h-2.535v2.164h2.72v2.12h-5.07v-10.6h5.07v2.12h-2.72zM110.456 91.785v1.984h2.37v2.12h-2.37v4.285h-2.238v-10.6h4.564v2.21h-2.326zM118.582 94.666l1.443 5.047h-2.231l-1.486-5.608v5.608h-2.099V89.575h2.973c1.793 0 3.018.82 3.018 2.675-.044 1.25-.613 2.157-1.618 2.416zm-.481-2.287c0-.733-.438-.992-1.094-.992h-.743v2.028h.743c.656 0 1.094-.26 1.094-1.036zM124.891 96.656h-1.637l-.5 3.518h-2.093l1.547-10.6h3.775l1.591 10.6h-2.183l-.5-3.518zm-.273-1.984l-.5-3.699-.546 3.699h1.046zM135.87 89.575v10.599h-3.709l-1.638-9.427v9.427h-2.027v-10.6h3.709l1.681 9.563v-9.562h1.984zM136.791 94.7c0-3.767 1.676-5.125 3.571-5.125.617 0 1.146.175 1.499.438v2.233c-.265-.262-.573-.438-1.014-.438-1.014 0-1.763.657-1.763 2.979 0 2.409.705 3.197 1.719 3.197.485 0 .749-.131 1.058-.394v2.059c-.265.394-.882.525-1.499.525-2.028 0-3.571-1.576-3.571-5.475zM145.131 91.695v2.075h2.535v2.12h-2.535v2.164h2.72v2.12h-5.07v-10.6h5.07v2.12h-2.72z" fill="#000"/><path d="M99.86 43.835h-6.504l-2.049 10.254h-6.592l6.325-31.338h11.225l6.414 31.338h-6.859l-1.96-10.254zm-1.114-6.011L96.697 27.17l-2.094 10.653h4.143zM131.722 31.781c0 6.241-4.099 9.25-10.204 9.25h-3.227V54.09h-6.846V22.751h10.073c6.149 0 10.204 2.745 10.204 9.03zm-6.628.177c0-2.39-1.352-3.143-3.62-3.143h-3.227v6.286h3.227c2.268 0 3.62-.886 3.62-3.143zM31.256 48.034h-9.645V22.751h-6.946V54.09h14.6l1.991-6.055zM48.25 35.127v-6.1h7.728l2.008-6.276h-16.59V54.09h14.582l2.008-6.276H48.25V41.36h7.204l2.008-6.233H48.25zM142.264 35.127v-6.1h7.728L152 22.752h-16.591V54.09h14.583L152 47.813h-9.736V41.36h7.204l2.008-6.233h-9.212zM86.56 22.751H64.145l-2.01 6.277h8.782v25.061h6.86V29.028h6.773l2.01-6.277zM36.787 22.751h-6.636l-3.963 11.983h6.636l3.963-11.983zM47.385 16.76h9.963l2.02-6.451h-9.964l-2.019 6.452zM30.795 78.975h-2.31V62.1l-3.733 16.876h-3.999l-3.777-16.79v16.79h-2.31V60.541h4.31l3.821 17.266 3.821-17.266h4.177v18.434zM43.7 69.493c0-7.468 2.677-9.413 6.013-9.413s5.97 1.945 5.97 9.413c0 7.424-2.678 9.943-5.97 9.943S43.7 76.917 43.7 69.493zm9.612 0c0-5.612-1.492-7.247-3.599-7.247s-3.643 1.635-3.643 7.247c0 5.48 1.492 7.734 3.643 7.734 2.063.044 3.6-2.21 3.6-7.734zM67.885 78.51v-2.557c.753.794 1.905 1.323 3.5 1.323 2.04 0 3.103-.882 3.103-2.778 0-1.367-.665-2.293-1.862-3.174l-2.304-1.764c-1.506-1.102-2.659-2.38-2.659-4.63 0-3.218 2.393-4.85 5.407-4.85 1.728 0 2.924.441 3.722.926v2.425a5.703 5.703 0 0 0-3.5-1.146c-2.084 0-3.236.97-3.236 2.645 0 1.323.71 2.117 1.817 2.91l2.304 1.764c1.64 1.146 2.703 2.513 2.703 4.806 0 3.175-1.993 5.026-5.45 5.026-1.64 0-2.925-.397-3.545-.926zM89.325 69.36c0-6.672 3.024-9.28 6.697-9.28 1.166 0 2.333.354 2.98.884v2.563c-.734-.75-1.64-1.105-2.764-1.105-2.765 0-4.58 1.99-4.58 6.938 0 5.082 1.771 7.734 4.493 7.734 1.21 0 2.031-.31 2.809-1.06v2.385c-.648.663-1.858 1.017-3.025 1.017-3.672.044-6.61-2.96-6.61-10.076zM110.061 69.493c0-7.468 2.678-9.413 6.014-9.413 3.335 0 5.969 1.99 5.969 9.413 0 7.424-2.678 9.943-5.969 9.943-3.248 0-6.014-2.519-6.014-9.943zm9.613 0c0-5.612-1.493-7.247-3.599-7.247-2.107 0-3.643 1.635-3.643 7.247 0 5.48 1.492 7.734 3.643 7.734 2.106.044 3.599-2.21 3.599-7.734zM152 60.541l-2.728 18.434h-3.959l-2.508-16.963-2.508 16.963h-3.959l-2.772-18.434h2.288l2.507 16.876 2.42-16.876h3.96l2.552 16.876 2.463-16.876H152z" fill="#fff"/></g><defs><filter id="filter0_d" x=".665" y=".309" width="165.335" height="122.014" filterUnits="userSpaceOnUse" color-interpolation-filters="sRGB"><feFlood flood-opacity="0" result="BackgroundImageFix"/><feColorMatrix in="SourceAlpha" values="0 0 0 0 0 0 0 0 0 0 0 0 0 0 0 0 0 0 127 0"/><feOffset dy="4"/><feGaussianBlur stdDeviation="7"/><feColorMatrix values="0 0 0 0 0 0 0 0 0 0 0 0 0 0 0 0 0 0 0.45 0"/><feBlend in2="BackgroundImageFix" result="effect1_dropShadow"/><feBlend in="SourceGraphic" in2="effect1_dropShadow" result="shape"/></filter></defs></svg>