<svg width="253" height="132" fill="none" xmlns="http://www.w3.org/2000/svg"><path d="M138.234 13.608c-.964-.964-2.732-.964-3.697 0l-4.34 4.34c-.964.965-.964 2.733 0 3.697.483.482 1.126.804 1.769.804s1.286-.322 1.768-.804l4.34-4.34c1.285-1.125 1.285-2.732.16-3.697zM84.226 63.758c-.964.964-.964 2.732 0 3.696.482.483 1.125.804 1.768.804s1.286-.321 1.768-.803l.643-.643c-.321-2.09-.643-4.18-.964-6.43l-3.215 3.376zM121.356 26.789L98.532 49.613c.321 2.09.803 4.18 1.125 6.27l25.396-25.397c.965-.965.965-2.733 0-3.697-1.125-.965-2.732-.965-3.697 0z" fill="#CC2128"/><path d="M19.45 103.301c0-1.286 0-2.732-.162-4.018V85.138v-1.447h10.93v9.162h9.323c2.411 0 3.858-1.446 3.858-3.857V71.154c0-2.572-1.286-3.858-3.858-3.858h-10.93v-.803-9.484h10.93c1.929 0 3.376-1.286 3.376-3.215V39.971c0-1.768-1.286-3.215-3.215-3.215h-9.323v9.162H19.45V26.47c.322 0 .482-.16.804-.16H43.72c3.054 0 6.108.642 8.52 2.571 2.571 1.929 4.018 4.5 4.018 7.716.16 6.268 0 12.537 0 18.967 0 2.732-1.447 4.822-3.697 6.268-.16.16-.322.16-.482.482 3.857 1.93 4.822 5.144 4.822 9.162v19.45c0 7.233-3.536 11.251-10.77 12.376-.16 0-.321.161-.482.161-8.68-.161-17.52-.161-26.2-.161zM61.723 103.3c4.18-22.182 8.198-44.363 12.377-66.706h-5.787V26.307h26.04c.482 2.41.964 4.983 1.285 7.394 2.572 13.823 4.983 27.646 7.555 41.63 1.607 9.002 3.215 17.842 4.822 26.844v1.125H94.353c-.643-3.858-1.286-7.555-1.769-11.412-.16-.804-.321-1.126-1.125-1.126H77.636c-.16 1.286-.482 2.572-.643 3.858-.482 2.893-.804 5.626-1.286 8.519-4.661.161-9.323.161-13.984.161zM85.19 45.113h-.161c-1.93 11.734-3.858 23.468-5.626 35.201h11.412c-1.929-11.733-3.697-23.467-5.626-35.2zM171.507 66.491c0-4.66-2.411-8.036-6.751-9.804-2.25-.965-4.501-1.126-6.912-1.126h-12.859V36.434h23.95V26.147h-37.773v76.992h29.093c.322 0 .643-.16.965-.16 6.108-.804 10.126-4.822 10.126-10.77.322-8.519.322-17.038.161-25.718zm-13.663 22.664c0 2.09-1.286 3.537-3.375 3.537h-9.644V66.008h9.322c2.09 0 3.536 1.447 3.536 3.536.161 6.59.161 13.18.161 19.61zM181.472 103.3V26.307h31.344v10.287h-17.681v19.128h15.27V66.17h-15.27v26.682h17.681V103.3h-31.344zM221.656 103.3V26.307H253v10.287h-17.681V103.3h-13.663z" fill="#fff"/><path d="M95.479 89.958c-.643 0-1.286-.322-1.769-.804-.964-.964-.964-2.732 0-3.697l4.34-4.34c.965-.964 2.733-.964 3.697 0 .965.965.965 2.733 0 3.697l-4.34 4.34c-.482.483-1.285.804-1.928.804zm13.341-13.341c-.643 0-1.286-.322-1.768-.804-.965-.964-.965-2.732 0-3.697l28.611-28.61c.964-.965 2.732-.965 3.697 0 .964.963.964 2.732 0 3.696l-28.611 28.611c-.643.643-1.286.804-1.929.804zM131.162 32.414L72.814 90.762c-.964.964-.964 2.732 0 3.697.483.482 1.126.803 1.769.803.642 0 1.285-.321 1.768-.803L131 39.809c.161-2.412.161-4.984.161-7.395zM144.824 26.306L166.041 5.09c.965-.964.965-2.733 0-3.697-.964-.964-2.732-.964-3.697 0L137.43 26.306h7.394z" fill="#CC2128"/><path d="M206.064 121.141c0-1.446 1.286-2.732 2.733-2.732 1.446 0 2.732 1.286 2.732 2.732 0 1.447-1.286 2.733-2.732 2.733-1.608 0-2.733-1.125-2.733-2.733zM227.443 110.05c0-2.089-1.126-3.536-3.215-3.696-1.447-.161-2.893-.161-4.34-.161h-1.286v-1.608a44.672 44.672 0 0 0-4.179 1.608c-.161 0-.161.321-.161.482v23.146c0 .322 0 .482.322.482 1.286.483 2.411.965 3.697 1.608h.321v-8.198h4.661c2.411 0 4.18-1.447 4.019-4.179.161-3.054.161-6.269.161-9.484zm-4.34 8.841c0 .964-.483 1.286-1.286 1.286h-3.054v-10.609h3.536c.482 0 .964.643.964 1.286v4.34c-.16 1.286-.16 2.572-.16 3.697zM237.73 123.713h-2.893c-.643 0-1.125 0-1.768-.161-1.768-.482-2.733-1.768-2.733-3.536V109.89c0-2.09 1.608-3.537 3.858-3.697h3.536v-.483-5.465c0-.321.161-.482.322-.642a36.758 36.758 0 0 0 3.697-1.608v8.198h.803c1.286 0 2.411 0 3.697.16 1.768.322 2.893 1.608 2.893 3.537v10.126c0 1.929-1.285 3.215-3.214 3.536-.482 0-.804.161-1.286.161h-2.733v8.198c-.321-.161-.643-.161-.803-.322-.965-.482-1.929-.804-2.894-1.286-.321-.161-.321-.321-.321-.482v-5.465c-.161-.161-.161-.322-.161-.643zm-.161-13.984h-2.089c-.643 0-1.125.482-1.125 1.125v8.358c0 .483.482.965.964 1.126h2.25v-10.609zm4.34 10.609h1.929c.804 0 1.286-.483 1.286-1.286v-1.608-6.268c0-.643-.321-1.286-.804-1.286h-2.25c-.161 3.375-.161 6.911-.161 10.448zM11.573 29.2l1.286-5.787H8.198l-1.286 5.786H3.215L4.5 23.413H0v-3.536h5.304l1.125-5.144h-4.5v-3.536h5.304l1.125-5.304h3.697l-1.125 5.304h4.5l1.126-5.304h3.697l-1.125 5.304h4.661v3.536h-5.304l-1.125 5.144h4.661v3.536h-5.304l-1.286 5.786h-3.858zm-2.572-9.323h4.662l1.125-5.144h-4.662l-1.125 5.144z" fill="#929496"/></svg>